{"accessors" : [{"bufferView" : 0, "byteOffset" : 0, "componentType" : 5123, "count" : 3012, "type" : "SCALAR", "max" : [3011], "min" : [0]}, {"bufferView" : 1, "byteOffset" : 0, "componentType" : 5126, "count" : 3012, "type" : "VEC3", "max" : [2.8713648319244385, 11.26017951965332, 4.26126766204834], "min" : [-5.164253234863281, 2.576444625854492, -3.916290760040283], "name" : "POSITION"}, {"bufferView" : 1, "byteOffset" : 12, "componentType" : 5126, "count" : 3012, "type" : "VEC3", "max" : [0.7979245781898499, 1.0000042915344238, 0.7735775709152222], "min" : [-0.8745134472846985, -0.9999885559082031, -0.7735770344734192], "name" : "NORMAL"}, {"bufferView" : 1, "byteOffset" : 24, "componentType" : 5126, "count" : 3012, "type" : "VEC2", "max" : [1.1656160354614258, -0], "min" : [-0.2437603920698166, -2.9136672019958496], "name" : "TEXCOORD_0"}, {"bufferView" : 0, "byteOffset" : 6024, "componentType" : 5123, "count" : 25827, "type" : "SCALAR", "max" : [25826], "min" : [0]}, {"bufferView" : 2, "byteOffset" : 0, "componentType" : 5126, "count" : 25827, "type" : "VEC3", "max" : [4.086137294769287, 7.716394424438477, 5.60517692565918], "min" : [-5.288817405700684, -6.989889144897461, -3.7697830200195312], "name" : "POSITION"}, {"bufferView" : 2, "byteOffset" : 12, "componentType" : 5126, "count" : 25827, "type" : "VEC3", "max" : [1.0000027418136597, 1.0000044107437134, 1.000002145767212], "min" : [-1.000002145767212, -1.0000044107437134, -1.000002384185791], "name" : "NORMAL"}, {"bufferView" : 2, "byteOffset" : 24, "componentType" : 5126, "count" : 25827, "type" : "VEC2", "max" : [1.0840482711791992, 7.450581307466564E-08], "min" : [-0.08902096003293991, -1.0354838371276855], "name" : "TEXCOORD_0"}, {"bufferView" : 0, "byteOffset" : 57680, "componentType" : 5123, "count" : 1764, "type" : "SCALAR", "max" : [1763], "min" : [0]}, {"bufferView" : 3, "byteOffset" : 0, "componentType" : 5126, "count" : 1764, "type" : "VEC3", "max" : [2.5792346000671387, 11.156627655029297, 3.9715185165405273], "min" : [-5.027569770812988, -1.3442020416259766, -3.619520664215088], "name" : "POSITION"}, {"bufferView" : 3, "byteOffset" : 12, "componentType" : 5126, "count" : 1764, "type" : "VEC3", "max" : [0.7086237072944641, 1.0000044107437134, 0.7086439728736877], "min" : [-0.7075021266937256, -1.0000044107437134, -0.7086684703826904], "name" : "NORMAL"}, {"bufferView" : 3, "byteOffset" : 24, "componentType" : 5126, "count" : 1764, "type" : "VEC2", "max" : [0.875, -0], "min" : [0.125, -1], "name" : "TEXCOORD_0"}], "asset" : {"generator" : "Aspose.3D 22.7", "version" : "2.0"}, "buffers" : [{"uri" : "data:application/octet-stream;base64,", "byteLength" : 1040520}], "bufferViews" : [{"buffer" : 0, "byteOffset" : 0, "byteLength" : 61208, "target" : 34963}, {"buffer" : 0, "byteOffset" : 61212, "byteLength" : 96384, "byteStride" : 32, "target" : 34962}, {"buffer" : 0, "byteOffset" : 157600, "byteLength" : 826464, "byteStride" : 32, "target" : 34962}, {"buffer" : 0, "byteOffset" : 984068, "byteLength" : 56448, "byteStride" : 32, "target" : 34962}], "materials" : [{"name" : "blinn1", "pbrMetallicRoughness" : {"baseColorFactor" : [0.2142857164144516, 0.2142857164144516, 0.2142857164144516, 1], "metallicFactor" : 0, "roughnessFactor" : 0}, "emissiveFactor" : [0, 0, 0], "alphaMode" : "OPAQUE", "doubleSided" : false}, {"name" : "GrenadeColour", "pbrMetallicRoughness" : {"baseColorFactor" : [0, 0.09090909361839294, 0, 1], "metallicFactor" : 0, "roughnessFactor" : 0}, "emissiveFactor" : [0, 0, 0], "alphaMode" : "OPAQUE", "doubleSided" : false}, {"name" : "phongE2", "pbrMetallicRoughness" : {"baseColorFactor" : [0.5, 0.5, 0.5, 1], "metallicFactor" : 0, "roughnessFactor" : 0}, "emissiveFactor" : [0, 0, 0], "alphaMode" : "OPAQUE", "doubleSided" : false}], "meshes" : [{"primitives" : [{"attributes" : {"POSITION" : 1, "NORMAL" : 2, "TEXCOORD_0" : 3}, "indices" : 0, "material" : 0, "mode" : 4}, {"attributes" : {"POSITION" : 5, "NORMAL" : 6, "TEXCOORD_0" : 7}, "indices" : 4, "material" : 1, "mode" : 4}, {"attributes" : {"POSITION" : 9, "NORMAL" : 10, "TEXCOORD_0" : 11}, "indices" : 8, "material" : 2, "mode" : 4}], "name" : ""}], "nodes" : [{"mesh" : 0, "name" : "pCube5"}], "scene" : 0, "scenes" : [{"nodes" : [0]}]}