{"accessors" : [{"bufferView" : 0, "byteOffset" : 0, "componentType" : 5123, "count" : 2676, "type" : "SCALAR", "max" : [2675], "min" : [0]}, {"bufferView" : 1, "byteOffset" : 0, "componentType" : 5126, "count" : 2676, "type" : "VEC3", "max" : [100, 60.51536560058594, 100], "min" : [-100, -1.6292067812173627E-05, -100.00000762939453], "name" : "POSITION"}, {"bufferView" : 1, "byteOffset" : 12, "componentType" : 5126, "count" : 2676, "type" : "VEC3", "max" : [1.0000044107437134, 1.0000044107437134, 1.0000044107437134], "min" : [-1.0000044107437134, -1.0000044107437134, -1.0000044107437134], "name" : "NORMAL"}, {"bufferView" : 1, "byteOffset" : 24, "componentType" : 5126, "count" : 2676, "type" : "VEC2", "max" : [0.997161865234375, -0.002838134765625], "min" : [0.002838134765625, -0.9816716909408569], "name" : "TEXCOORD_0"}], "asset" : {"generator" : "Aspose.3D 22.7", "version" : "2.0"}, "buffers" : [{"uri" : "data:application/octet-stream;base64,", "byteLength" : 90992}], "bufferViews" : [{"buffer" : 0, "byteOffset" : 0, "byteLength" : 5352, "target" : 34963}, {"buffer" : 0, "byteOffset" : 5356, "byteLength" : 85632, "byteStride" : 32, "target" : 34962}], "materials" : [{"name" : "Material.003", "pbrMetallicRoughness" : {"baseColorFactor" : [0.800000011920929, 0.800000011920929, 0.800000011920929, 1], "metallicFactor" : 0, "roughnessFactor" : 0}, "emissiveFactor" : [0, 0, 0], "alphaMode" : "OPAQUE", "doubleSided" : false}], "meshes" : [{"primitives" : [{"attributes" : {"POSITION" : 1, "NORMAL" : 2, "TEXCOORD_0" : 3}, "indices" : 0, "material" : 0, "mode" : 4}], "name" : ""}], "nodes" : [{"mesh" : 0, "name" : "lowpoly"}], "scene" : 0, "scenes" : [{"nodes" : [0]}]}