{"accessors" : [{"bufferView" : 0, "byteOffset" : 0, "componentType" : 5123, "count" : 6348, "type" : "SCALAR", "max" : [6347], "min" : [0]}, {"bufferView" : 1, "byteOffset" : 0, "componentType" : 5126, "count" : 6348, "type" : "VEC3", "max" : [3.2420077323913574, 3.232715368270874, 9.567026138305664], "min" : [-3.2509937286376953, -3.250559091567993, -1.7524151802062988], "name" : "POSITION"}, {"bufferView" : 1, "byteOffset" : 12, "componentType" : 5126, "count" : 6348, "type" : "VEC3", "max" : [1.0000044107437134, 1.0000044107437134, 1.0000044107437134], "min" : [-1.0000044107437134, -1.0000044107437134, -1.0000044107437134], "name" : "NORMAL"}, {"bufferView" : 1, "byteOffset" : 24, "componentType" : 5126, "count" : 6348, "type" : "VEC2", "max" : [1, -0], "min" : [0, -1.0000001192092896], "name" : "TEXCOORD_0"}, {"bufferView" : 0, "byteOffset" : 12696, "componentType" : 5123, "count" : 2586, "type" : "SCALAR", "max" : [2585], "min" : [0]}, {"bufferView" : 2, "byteOffset" : 0, "componentType" : 5126, "count" : 2586, "type" : "VEC3", "max" : [3.495619297027588, 3.502904176712036, 9.169020652770996], "min" : [-3.5074143409729004, -3.508941173553467, -11.75519847869873], "name" : "POSITION"}, {"bufferView" : 2, "byteOffset" : 12, "componentType" : 5126, "count" : 2586, "type" : "VEC3", "max" : [0.9998613595962524, 0.999863862991333, 0.9199694991111755], "min" : [-0.9998617172241211, -0.9996579885482788, -0.9973942041397095], "name" : "NORMAL"}, {"bufferView" : 2, "byteOffset" : 24, "componentType" : 5126, "count" : 2586, "type" : "VEC2", "max" : [1, -0.02782965824007988], "min" : [0, -0.9886363744735718], "name" : "TEXCOORD_0"}, {"bufferView" : 0, "byteOffset" : 17868, "componentType" : 5123, "count" : 1440, "type" : "SCALAR", "max" : [1439], "min" : [0]}, {"bufferView" : 3, "byteOffset" : 0, "componentType" : 5126, "count" : 1440, "type" : "VEC3", "max" : [1.2794848680496216, 1.2839326858520508, 2.0902767181396484], "min" : [-1.2761640548706055, -1.2718098163604736, -4.1218414306640625], "name" : "POSITION"}, {"bufferView" : 3, "byteOffset" : 12, "componentType" : 5126, "count" : 1440, "type" : "VEC3", "max" : [0.9999202489852905, 0.9998815655708313, 0.9855427742004395], "min" : [-0.9999080300331116, -0.9998673796653748, -1.0000044107437134], "name" : "NORMAL"}, {"bufferView" : 3, "byteOffset" : 24, "componentType" : 5126, "count" : 1440, "type" : "VEC2", "max" : [1, -0.01189146377146244], "min" : [0, -1], "name" : "TEXCOORD_0"}], "asset" : {"generator" : "Aspose.3D 22.7", "version" : "2.0"}, "buffers" : [{"uri" : "data:application/octet-stream;base64,", "byteLength" : 352732}], "bufferViews" : [{"buffer" : 0, "byteOffset" : 0, "byteLength" : 20748, "target" : 34963}, {"buffer" : 0, "byteOffset" : 20752, "byteLength" : 203136, "byteStride" : 32, "target" : 34962}, {"buffer" : 0, "byteOffset" : 223892, "byteLength" : 82752, "byteStride" : 32, "target" : 34962}, {"buffer" : 0, "byteOffset" : 306648, "byteLength" : 46080, "byteStride" : 32, "target" : 34962}], "meshes" : [{"primitives" : [{"attributes" : {"POSITION" : 1, "NORMAL" : 2, "TEXCOORD_0" : 3}, "indices" : 0, "mode" : 4}], "name" : "Cylinder"}, {"primitives" : [{"attributes" : {"POSITION" : 5, "NORMAL" : 6, "TEXCOORD_0" : 7}, "indices" : 4, "mode" : 4}], "name" : "Cylinder.002"}, {"primitives" : [{"attributes" : {"POSITION" : 9, "NORMAL" : 10, "TEXCOORD_0" : 11}, "indices" : 8, "mode" : 4}], "name" : "Cylinder.003"}], "nodes" : [{"matrix" : [100, 0, 0, 0, 0, -1.6292067955264296E-05, -99.99999999999866, 0, 0, 99.99999999999866, -1.6292067955264296E-05, 0, 0.4652322232723236, -502.6524658203125, -0.9086892008781433, 1], "mesh" : 0, "name" : "Cylinder"}, {"matrix" : [100, 0, 0, 0, 0, -1.6292067955264296E-05, -99.99999999999866, 0, 0, 99.99999999999866, -1.6292067955264296E-05, 0, 0.5897539854049683, 1573.6575927734375, 0.13873940706253052, 1], "mesh" : 1, "name" : "Cylinder.001"}, {"matrix" : [100, 0, 0, 0, 0, -1.6292067955264296E-05, -99.99999999999866, 0, 0, 99.99999999999866, -1.6292067955264296E-05, 0, -0.1688341498374939, 2870.2275390625, 0.5986970067024231, 1], "mesh" : 2, "name" : "Cylinder.002"}], "scene" : 0, "scenes" : [{"nodes" : [0, 1, 2]}]}